<svg width="242" height="146" viewBox="0 0 242 146" fill="none" xmlns="http://www.w3.org/2000/svg">
<path d="M10.5946 108.707L9.40881 111.987C8.84596 113.543 9.15132 115.282 10.211 116.553V116.553C10.7281 117.174 11.3977 117.649 12.154 117.933L12.2597 117.972C13.9561 118.609 15.8629 118.294 17.2651 117.147L18.8872 115.82C19.0206 115.71 19.0874 115.656 19.1521 115.601C20.0196 114.859 20.7185 113.941 21.2019 112.908C21.238 112.831 21.2729 112.752 21.3426 112.594L22.0182 111.066C22.7886 109.323 23.1739 108.452 23.3442 107.524C23.3523 107.48 23.36 107.436 23.3673 107.392C23.522 106.462 23.4555 105.512 23.3226 103.611L23 99L23.5946 90.7072" stroke="black" stroke-width="6" stroke-linecap="round" stroke-linejoin="round"/>
<path d="M28.7027 142.598L30.6231 137.038C31.0606 135.772 31.2793 135.139 31.3896 134.481C31.5 133.824 31.5 133.154 31.5 131.814L31.5 125.5L32.8453 109.805C32.9226 108.903 32.9612 108.453 33.0501 108.01C33.1391 107.567 33.2775 107.137 33.5544 106.275L37.0188 95.4972C37.2592 94.7492 37.3794 94.3752 37.5354 94.0154C37.6914 93.6555 37.8821 93.3121 38.2635 92.6252L40.0747 89.3638C40.3553 88.8585 40.7356 88.4155 41.1926 88.0616L42.0151 87.4246C43.3954 86.3555 45.3774 86.5873 46.4739 87.946V87.946C46.8188 88.3735 47.0482 88.8824 47.14 89.4241L47.6601 92.4938C47.8199 93.4372 47.8999 93.9089 47.9231 94.3852C47.9269 94.4634 47.9296 94.5416 47.9311 94.6198C47.9404 95.0966 47.8928 95.5727 47.7975 96.5248L47 104.5L49.5205 92.3178C49.752 91.1986 49.8678 90.639 50.0609 90.1036C50.078 90.056 50.0957 90.0085 50.1137 89.9613C50.3169 89.4296 50.5944 88.9301 51.1495 87.931L52.0713 86.2717C52.3549 85.7613 52.727 85.3055 53.1703 84.9255L54.1568 84.0799C55.2469 83.1456 56.8253 83.0503 58.0199 83.8466V83.8466C58.6526 84.2684 59.1147 84.9015 59.3236 85.6327L59.7077 86.9767C59.9013 87.6544 59.9829 88.3591 59.9494 89.0631L59.5542 97.3621C59.5281 97.91 60.0604 98.3132 60.5807 98.1398V98.1398C60.8409 98.0531 61.0364 97.8362 61.0959 97.5686L63.5297 86.6165C63.5565 86.4956 63.57 86.4352 63.5841 86.3758C63.8758 85.1519 64.452 84.0141 65.2659 83.0547C65.3054 83.0081 65.3462 82.9615 65.4277 82.8684L66.7092 81.4038C67.2195 80.8207 67.9218 80.4398 68.6888 80.3302V80.3302C70.0691 80.133 71.4206 80.8412 72.0441 82.0882L72.5066 83.0131C72.8311 83.6621 73 84.3778 73 85.1034L73 89.5303C73 90.5139 73 91.0057 72.9401 91.4926C72.8801 91.9795 72.7609 92.4566 72.5223 93.4109L71 99.5L85 58.5L90.5 45.5L93.5 39L95.5 35.5L95.8749 34.9377C96.5363 33.9456 98.0494 34.1482 98.4265 35.2794V35.2794C98.4752 35.4255 98.5 35.5785 98.5 35.7325L98.5 40L97.5 48L93.5 65.5L88 82.5001L85.7329 90.6615C85.672 90.8808 85.6416 90.9904 85.6143 91.1007C85.548 91.3686 85.4956 91.6398 85.4573 91.9132C85.4416 92.0257 85.429 92.1388 85.4039 92.365L85.1203 94.9177C85.0423 95.6198 85.1968 96.3281 85.5603 96.9338V96.9338C86.1433 97.9055 87.1934 98.5 88.3266 98.5L89.1063 98.5C90.0151 98.5 90.9035 98.231 91.6597 97.7269L93.8297 96.2802C94.2911 95.9726 94.5218 95.8188 94.7409 95.6498C94.8966 95.5296 95.0479 95.4037 95.1944 95.2724C95.4004 95.0877 95.5935 94.8888 95.9799 94.491L101.703 88.598" stroke="black" stroke-width="6" stroke-linecap="round" stroke-linejoin="round"/>
<path d="M112 82.4999L110.737 83.7625C109.945 84.5548 109.5 85.6295 109.5 86.75V86.75C109.5 87.8705 109.945 88.9451 110.737 89.7375L110.909 89.9095C111.619 90.6187 112.532 91.0886 113.521 91.2535L114.023 91.3372C114.67 91.4451 115.331 91.4528 115.98 91.3599L116.282 91.3169C117.722 91.1112 119.056 90.444 120.085 89.4155V89.4155C120.689 88.8107 121.173 88.0961 121.51 87.31L122.5 85V85C123.247 83.2581 123.62 82.3872 123.78 81.4621C123.78 81.462 123.78 81.4619 123.78 81.4618C123.94 80.5367 123.881 79.591 123.762 77.6995L123.591 74.9617C123.546 74.2314 123.523 73.8662 123.467 73.5051C123.411 73.1441 123.322 72.7891 123.145 72.0792L122.54 69.6611C122.514 69.5544 122.47 69.4525 122.412 69.3592L122.317 69.2077C121.75 68.3002 122.8 67.2501 123.708 67.8173V67.8173C123.897 67.9358 124.121 67.9879 124.343 67.9657L128.122 67.5878C128.42 67.558 128.57 67.543 128.718 67.5225C128.904 67.4969 129.089 67.4647 129.273 67.426C129.419 67.3951 129.565 67.3587 129.856 67.2859L135 66L142.5 64L146.5 63V63C147.925 62.5251 149.373 63.6557 149.257 65.153L149.048 67.8745C149.016 68.2889 148.919 68.6955 148.759 69.0791L147.03 73.2272C146.765 73.8632 146.633 74.1812 146.474 74.4863C146.315 74.7914 146.13 75.082 145.76 75.6633L143.23 79.638C143.077 79.8786 142.898 80.1017 142.697 80.3034L140.378 82.622C139.311 83.6889 137.491 83.2172 137.076 81.7665V81.7665C137.026 81.5897 137 81.4067 137 81.2229L137 76.5L137.791 69.7726C137.896 68.8872 137.948 68.4445 138.048 68.0112C138.149 67.5779 138.297 67.1576 138.594 66.3169L141 59.5L144 52L145.825 48.3491C146.395 47.2092 146.68 46.6393 147.05 46.1239C147.077 46.0856 147.105 46.0475 147.133 46.0097C147.512 45.5009 147.968 45.0559 148.88 44.1659L149.897 43.1738C150.153 42.924 150.281 42.799 150.413 42.6813C151.157 42.0164 152.02 41.4968 152.956 41.1492C153.121 41.0877 153.292 41.0329 153.632 40.9232V40.9232C154.088 40.7764 154.316 40.703 154.543 40.6444C155.828 40.3124 157.175 40.3053 158.464 40.6236C158.691 40.6799 158.92 40.7509 159.377 40.8928L161.688 41.6096" stroke="black" stroke-width="6" stroke-linecap="round" stroke-linejoin="round"/>
<path d="M154.5 114.5L156.059 107.097C156.279 106.05 156.389 105.527 156.429 104.995C156.468 104.463 156.437 103.929 156.374 102.861L156 96.5L156.5 88L158.5 74.5L161.655 63.2306C161.828 62.6156 161.914 62.3081 162.024 62.0088C162.134 61.7095 162.268 61.4196 162.536 60.8397L164.751 56.04C164.916 55.6814 165.127 55.3453 165.377 55.0397L166.942 53.1269C168.198 51.5918 170.59 51.7441 171.641 53.4261V53.4261C171.877 53.8036 172.023 54.2304 172.067 54.6734L172.287 56.8651C172.361 57.6122 172.399 57.9858 172.401 58.3589C172.404 58.781 172.373 59.2027 172.309 59.62C172.253 59.9889 172.162 60.3531 171.98 61.0815L170.5 67L169.649 71.2525C169.552 71.7411 169.593 72.2472 169.768 72.7138V72.7138C170.387 74.3663 172.411 74.9737 173.838 73.9357L176.05 72.3275C176.349 72.1099 176.622 71.8581 176.862 71.5772L178.447 69.7282C178.973 69.1146 179.236 68.8078 179.467 68.4767C179.697 68.1456 179.893 67.7923 180.286 67.0859L180.416 66.8514C181.205 65.4305 181.6 64.7201 181.843 63.9504C182.086 63.1808 182.171 62.3725 182.341 60.7561L183 54.5L183 50.093C183 49.703 182.909 49.3184 182.735 48.9696V48.9696C181.92 47.3405 179.697 47.0926 178.544 48.5023L176.877 50.5388C176.627 50.8447 176.421 51.1844 176.265 51.5478L173.5 58" stroke="black" stroke-width="6" stroke-linecap="round" stroke-linejoin="round"/>
<path d="M194.387 42.6834L196.594 39.0086C197.047 38.2551 197.273 37.8783 197.456 37.4798C197.64 37.0814 197.779 36.6644 198.056 35.8306L199 33L200.5 27L201.5 20.5L202.294 15.3403C202.397 14.6705 202.448 14.3357 202.528 14.0067C202.607 13.6778 202.715 13.3564 202.929 12.7135L204 9.5L205.364 5.40739C205.454 5.13776 205.589 4.88538 205.764 4.66103V4.66103C207.06 2.99414 209.71 3.57881 210.185 5.63645L210.386 6.5041C210.461 6.83224 210.48 7.17099 210.441 7.50545L209.5 15.5L205.5 32.5L202.5 45.5L198 59V59C197.641 60.3156 199.489 61.0216 200.099 59.802L202.5 55L206 48.5L207.744 45.8834C207.913 45.631 208.135 45.419 208.395 45.2629V45.2629C209.491 44.6053 210.915 45.1006 211.367 46.2966L212.138 48.3392C212.302 48.7761 212.387 49.2393 212.387 49.7063L212.387 54.5L212.387 57.7181C212.387 58.3587 212.387 58.679 212.361 58.998C212.336 59.3169 212.285 59.6331 212.183 60.2655L211.5 64.5" stroke="black" stroke-width="6" stroke-linecap="round" stroke-linejoin="round"/>
<path d="M224.472 45.1642L226.088 40.2515C226.16 40.0334 226.196 39.9243 226.235 39.8168C226.428 39.2819 226.677 38.7692 226.979 38.2873C227.04 38.1903 227.103 38.0948 227.231 37.9038L227.972 36.7919C228.319 36.2711 228.783 35.8383 229.326 35.5278L230.408 34.9098C231.348 34.3726 232.531 34.5311 233.297 35.2967V35.2967C233.747 35.747 234 36.3577 234 36.9945L234 42.6758C234 43.3375 234 43.6684 233.973 43.9977C233.945 44.3271 233.891 44.6534 233.782 45.3062L232.5 53L230.5 60.5L228.5 68.5L225.5 78L221.56 86.3177C221.28 86.9085 221.14 87.2039 220.977 87.4866C220.814 87.7693 220.627 88.0381 220.255 88.5756L216.5 94L214.594 96.2873C214.204 96.7558 213.708 97.1252 213.147 97.3654L212.786 97.5201C211.43 98.1015 209.852 97.7229 208.908 96.589V96.589C208.328 95.8931 208.055 94.9913 208.153 94.0908L208.472 91.1642" stroke="black" stroke-width="6" stroke-linecap="round" stroke-linejoin="round"/>
</svg>
